<svg width="88" height="73" viewBox="0 0 88 73" fill="none" xmlns="http://www.w3.org/2000/svg">
<path d="M65 45C69.1357 45 72.5 41.6357 72.5 37.5C72.5 33.3643 69.1357 30 65 30C60.8643 30 57.5 33.3643 57.5 37.5C57.5 41.6357 60.8643 45 65 45ZM65 32.5C67.7568 32.5 70 34.7432 70 37.5C70 40.2568 67.7568 42.5 65 42.5C62.2432 42.5 60 40.2568 60 37.5C60 34.7432 62.2432 32.5 65 32.5Z" fill="#E3E2D5"/>
<path d="M83.75 10C81.6826 10 80 11.6821 80 13.75V15H77.3928C77.0929 13.1395 76.1382 11.9165 75 11.149V0H67.5V5H65V0H57.5V5H12.5V1.25H11.25H10V10.1071C6.08972 10.7377 5 14.2849 5 16.25V38.75C5 41.7683 7.15063 44.2933 10 44.874V47.5H8.75V50H10V52.5H8.75V55H13.75V52.5H12.5V50H13.75V47.5H12.5V44.874C15.3494 44.2933 17.5 41.7683 17.5 38.75C17.5 35.2217 20.6299 35.0073 21.25 35H43.75C48.5752 35 52.5 38.9253 52.5 43.75V57.5H6.25C1.30664 57.5 0 61.5884 0 63.75V72.5H87.5V50.6626C87.5 49.1309 86.626 47.8105 85.2188 47.2178C83.7969 46.6187 82.2266 46.9185 81.1172 48.0005C79.9554 49.134 78.7412 50.124 77.5 51.0031V22.5H80V23.75C80 25.8179 81.6826 27.5 83.75 27.5C85.8174 27.5 87.5 25.8179 87.5 23.75V13.75C87.5 11.6821 85.8174 10 83.75 10ZM70 2.5H72.5V10H71.25H70V2.5ZM65 7.5H67.5V10H65V7.5ZM60 2.5H62.5V10H60V2.5ZM12.5 7.5H57.5V10H12.5V7.5ZM21.25 32.5C19.0879 32.5 15 33.8062 15 38.75C15 40.8179 13.3174 42.5 11.25 42.5C9.18262 42.5 7.5 40.8179 7.5 38.75V16.2568C7.50684 15.6294 7.72168 12.5 11.25 12.5H57.5H65H67.5H71.2432C71.8701 12.5073 75 12.7217 75 16.25V22.5129C47.603 22.7697 28.4574 31.3279 25.9666 32.5H21.25ZM43.75 32.5H32.5554C40.3365 29.6414 55.5232 25.1982 75 25.0129V52.5946C67.3281 56.9921 59.1241 57.4478 55 57.4929V43.75C55 37.5469 49.9531 32.5 43.75 32.5ZM82.8633 49.79C83.4297 49.2368 84.0654 49.4448 84.248 49.5215C84.4238 49.5957 85 49.8979 85 50.6626V70H2.5V63.75C2.5 63.3662 2.60547 60 6.25 60H52.5H53.75C56.6354 60 63.2089 59.9996 70.2888 57.5C71.8462 56.9502 73.4275 56.2743 75 55.4559C75.8378 55.02 76.6726 54.5432 77.5 54.0194C79.3452 52.8513 81.1523 51.4594 82.8633 49.79ZM80 20H77.5V17.5H80V20ZM85 23.75C85 24.4395 84.4395 25 83.75 25C83.0605 25 82.5 24.4395 82.5 23.75V13.75C82.5 13.0605 83.0605 12.5 83.75 12.5C84.4395 12.5 85 13.0605 85 13.75V23.75Z" fill="#E3E2D5"/>
<path d="M28.75 15H18.75C17.2422 15 15 15.9985 15 18.75C15 21.5015 17.2422 22.5 18.75 22.5H28.75C30.2578 22.5 32.5 21.5015 32.5 18.75C32.5 15.9985 30.2578 15 28.75 15ZM28.75 20H18.75C18.374 20 17.5 19.8784 17.5 18.75C17.5 17.7461 18.1846 17.5156 18.7598 17.5H28.75C29.126 17.5 30 17.6216 30 18.75C30 19.7568 29.3125 19.9854 28.75 20Z" fill="#E3E2D5"/>
</svg>
